<svg width="29" height="32" viewBox="0 0 29 32" fill="none" xmlns="http://www.w3.org/2000/svg">
<g id="Icon">
<path id="Vector" d="M6.16667 2L2 7.6V27.2C2 27.9426 2.29266 28.6548 2.81359 29.1799C3.33453 29.705 4.04107 30 4.77778 30H24.2222C24.9589 30 25.6655 29.705 26.1864 29.1799C26.7073 28.6548 27 27.9426 27 27.2V7.6L22.8333 2H6.16667Z" stroke="#00CC96" stroke-width="2.5" stroke-linecap="round" stroke-linejoin="round"/>
<path id="Vector_2" d="M2 7.59998H27" stroke="#00CC96" stroke-width="2.5" stroke-linecap="round" stroke-linejoin="round"/>
<path id="Vector_3" d="M20.0554 13.1998C20.0554 14.685 19.4701 16.1094 18.4283 17.1596C17.3864 18.2098 15.9733 18.7998 14.4999 18.7998C13.0265 18.7998 11.6134 18.2098 10.5715 17.1596C9.52965 16.1094 8.94434 14.685 8.94434 13.1998" stroke="#00CC96" stroke-width="2.5" stroke-linecap="round" stroke-linejoin="round"/>
</g>
</svg>
